# xmcd
#
# Track frame offsets: 
#        150
#        26045
#        35628
#        48636
#        54559
#
# Disc length: 990 seconds
#
# Revision: 2
# Processed by: cddbd v1.5.2PL0 Copyright (c) Steve Scherf et al.
# Submitted via: ExactAudioCopy v1.3
#
DISCID=4203dc05
DTITLE=Beirut - Lon Gisland
DYEAR=2006
DGENRE=New Age
TTITLE0=Elephant Gun
TTITLE1=My Family's Role In The World Revolution
TTITLE2=Scenic World
TTITLE3=The Long Island Sound
TTITLE4=Carousels
EXTD=YEAR: 2006
EXTT0=
EXTT1=
EXTT2=
EXTT3=
EXTT4=
PLAYORDER=
